# xmcd
#
# Track frame offsets: 
#        150
#        16837
#        30495
#        44532
#        59075
#        74292
#        99037
#        114087
#        126150
#        140872
#        154817
#        177717
#        190950
#        198900
#        215055
#        236767
#        248470
#        275920
#
# Disc length: 3859 seconds
#
# Revision: 4
# Processed by: cddbd v1.5.2PL0 Copyright (c) Steve Scherf et al.
# Submitted via: ExactAudioCopy v0.95b4
#
DISCID=0d0f1112
DTITLE=Das Dritte Ohr - Das Elfte Gebot
DYEAR=1900
DGENRE=Blues
TTITLE0=Das elfte Gebot
TTITLE1=Sommerwind
TTITLE2=Kein Pfand auf Magenbitter
TTITLE3=Es juckt so
TTITLE4=Zucker-Mamma
TTITLE5=Wo ist sie?
TTITLE6=Sag mir was süsses
TTITLE7=Korn, Kohl und Heimweh
TTITLE8=Komm in meine Küche
TTITLE9=Tanzt mit uns heut Nacht
TTITLE10=Wieder mal
TTITLE11=Mann oder Maus ?
TTITLE12=Wovon auch
TTITLE13=Ich brauch noch einen Job
TTITLE14=Der Totengräber grinst
TTITLE15=Schnudels
TTITLE16=Deine Augen
TTITLE17=Two Woman Blues
EXTD=
EXTT0=
EXTT1=
EXTT2=
EXTT3=
EXTT4=
EXTT5=
EXTT6=
EXTT7=
EXTT8=
EXTT9=
EXTT10=
EXTT11=
EXTT12=
EXTT13=
EXTT14=
EXTT15=
EXTT16=
EXTT17=
PLAYORDER=
